# xmcd CD database file
#
# Track frame offsets:
#	150
#	23055
#	50940
#	70215
#	88292
#	101777
#	121405
#	143755
#	162762
#	180565
#
# Disc length: 2730 seconds
#
# Revision: 1
# Processed by: cddbd v1.5PL3 Copyright (c) Steve Scherf et al.
# Submitted via: jetAudio 5
#
DISCID=8c0aa80a
DTITLE=Frits lambrechts - Achteraf Gezien
DYEAR=1900
DGENRE=
TTITLE0=Achteraf gezien
TTITLE1=Begeerte
TTITLE2=Zaadcel
TTITLE3=Waarom geef jij meer om mij dan ik om jou
TTITLE4=De tijd voorbij
TTITLE5=Vrij Jeruzalem
TTITLE6=De nacht is lang
TTITLE7=Voorbij, oorlog is voorgoed voorbij
TTITLE8=Het is zo gewoon
TTITLE9=Het vijfde seizoen
EXTD=Extra CD bij Dubbel CD Portret Frits lambrechts
EXTT0=arr. Gerbrandt Westveen
EXTT1=arr. Bob Zimmerman
EXTT2=arr. Thijs van Otterloo
EXTT3=arr. Henk Huizinga
EXTT4=arr. Thijs van Otterloo
EXTT5=arr. Henk Huizinga
EXTT6=arr. Gerbrandt Westveen
EXTT7=arr. Henk Huizinga
EXTT8=arr. Jan Wessels
EXTT9=arr. Bob Zimmerman
PLAYORDER=
